<?xml version="1.0" standalone="no"?>
<!DOCTYPE svg PUBLIC "-//W3C//DTD SVG 20010904//EN"
 "http://www.w3.org/TR/2001/REC-SVG-20010904/DTD/svg10.dtd">
<svg version="1.0" xmlns="http://www.w3.org/2000/svg"
 width="412.000000pt" height="412.000000pt" viewBox="0 0 412.000000 412.000000"
 preserveAspectRatio="xMidYMid meet">
<metadata>
Created by potrace 1.14, written by Peter Selinger 2001-2017
</metadata>
<g transform="translate(0.000000,412.000000) scale(0.100000,-0.100000)"
fill="#000000" stroke="none">
<path d="M3045 3925 c-114 -55 -283 -133 -305 -140 -3 -1 -41 -19 -85 -39 -44
-21 -109 -51 -145 -67 -36 -17 -77 -37 -92 -45 -14 -8 -33 -14 -42 -14 -9 0
-16 -4 -16 -10 0 -5 -5 -10 -11 -10 -6 0 -42 -14 -80 -32 -80 -37 -82 -25 31
-167 43 -54 76 -102 73 -105 -16 -16 31 6 376 179 204 102 376 185 381 185 6
0 10 5 10 10 0 6 3 9 8 8 8 -1 42 14 109 50 l42 22 -26 27 c-14 16 -55 63 -91
106 -36 42 -66 77 -66 76 -1 0 -32 -15 -71 -34z"/>
<path d="M1866 3183 c-2 -2 -47 -4 -100 -5 -87 0 -95 -2 -84 -17 12 -14 11
-15 -5 -2 -18 14 -69 16 -149 5 -47 -6 -102 -11 -161 -13 -21 0 -36 -4 -34 -8
3 -5 -16 -8 -41 -8 -58 -1 -203 -25 -198 -34 2 -3 -11 -6 -30 -7 -19 0 -44 -9
-56 -20 -13 -12 -18 -13 -13 -4 5 10 1 8 -13 -4 -12 -10 -19 -23 -16 -27 3 -5
-2 -6 -10 -3 -26 10 -31 -25 -7 -56 11 -16 21 -38 21 -50 0 -11 4 -20 8 -20 5
0 6 -25 4 -56 -3 -42 -1 -54 8 -49 9 6 9 3 1 -12 -6 -11 -8 -23 -5 -26 4 -3 6
-35 5 -71 0 -46 3 -66 12 -66 8 0 9 -3 1 -8 -13 -9 -14 -42 -1 -42 5 0 4 -6
-2 -13 -6 -8 -9 -16 -6 -19 3 -2 6 -23 7 -46 1 -27 5 -39 12 -35 6 4 5 -1 -2
-10 -15 -18 -7 -41 10 -31 7 4 8 2 4 -5 -4 -6 -11 -9 -15 -7 -4 3 -7 -13 -7
-34 0 -21 3 -37 6 -35 3 2 4 -21 2 -52 -2 -36 0 -53 6 -49 6 3 14 2 17 -4 4
-6 1 -9 -7 -8 -14 3 -15 -27 -4 -232 3 -63 7 -157 8 -207 1 -60 5 -93 12 -93
6 0 4 -5 -4 -10 -8 -5 -10 -10 -5 -10 6 0 10 -38 10 -95 0 -52 3 -95 8 -95 4
0 5 -5 1 -11 -3 -6 0 -15 7 -20 11 -7 11 -9 1 -9 -20 0 -14 -139 7 -165 15
-19 15 -19 -3 -5 -17 14 -18 13 -13 -5 3 -11 9 -81 12 -155 4 -86 11 -137 18
-142 9 -6 9 -8 -1 -8 -9 0 -12 -15 -11 -55 1 -30 5 -55 8 -55 3 0 6 -11 6 -25
0 -14 -4 -25 -8 -25 -5 0 -5 -5 -1 -11 4 -7 8 -47 9 -90 1 -43 7 -84 13 -92 7
-8 9 -16 7 -19 -3 -3 0 -18 6 -34 7 -16 14 -38 16 -49 4 -23 45 -85 55 -85 4
0 22 -16 40 -35 30 -34 124 -92 157 -97 9 -2 18 -6 21 -9 7 -9 90 -50 90 -45
0 3 18 -1 40 -9 22 -8 43 -14 45 -14 11 1 71 -13 95 -21 14 -5 55 -11 93 -13
53 -3 73 -9 92 -27 22 -21 26 -22 47 -8 27 18 86 26 236 34 59 3 114 8 122 11
16 7 24 9 79 17 55 9 192 46 215 59 12 6 23 11 26 10 16 -3 175 75 172 86 -1
7 2 10 8 6 13 -8 52 19 42 30 -4 5 -2 5 4 2 7 -4 28 6 47 21 20 15 48 35 62
45 15 11 24 25 21 33 -3 8 -2 13 3 11 8 -2 80 79 82 91 2 20 17 87 19 87 10 0
14 118 14 477 1 237 5 428 10 428 5 0 3 6 -3 14 -8 10 -9 16 -1 21 6 3 7 11 3
17 -3 7 -6 26 -6 43 0 17 3 36 6 43 4 6 3 13 -3 17 -6 4 -7 12 -1 22 5 9 5 29
1 45 -5 15 -5 30 0 33 5 3 5 19 0 35 -6 20 -5 30 2 30 7 0 7 4 -1 13 -6 8 -8
16 -5 20 9 8 10 148 2 154 -5 2 -5 9 -1 16 10 16 10 97 1 103 -5 3 -5 10 -1
17 3 6 8 139 10 295 4 305 3 303 60 395 13 21 21 42 18 48 -4 5 -2 8 3 7 5 -2
23 13 40 32 23 25 28 38 20 47 -6 7 -14 11 -18 8 -5 -3 -11 -1 -15 5 -10 16
-33 12 -38 -7 -4 -16 -5 -16 -6 -2 -2 28 -61 35 -61 8 0 -12 13 -11 28 1 7 5
6 3 -2 -6 -17 -20 -39 -9 -31 16 5 15 1 18 -25 16 -16 -1 -30 1 -30 6 0 4 -4
8 -10 8 -5 0 -9 -3 -9 -7 3 -20 -2 -34 -10 -29 -5 4 -11 0 -14 -6 -3 -7 -4 -3
-4 8 1 14 6 20 14 17 9 -4 11 0 7 11 -4 10 -12 15 -19 12 -7 -2 -17 0 -22 5
-6 6 -33 11 -62 12 -28 1 -51 4 -51 8 0 3 -10 5 -22 6 -13 0 -52 3 -86 7 -36
4 -61 3 -58 -2 3 -5 31 -10 63 -11 80 -3 83 -3 83 -12 0 -4 12 -6 26 -3 14 3
23 1 20 -4 -3 -5 12 -8 34 -7 26 2 44 -3 52 -13 11 -12 11 -16 0 -20 -10 -3
-10 -7 0 -20 11 -15 11 -15 -3 -5 -9 7 -19 10 -22 6 -4 -3 -7 -1 -7 5 0 7 5
12 11 12 5 0 7 5 4 10 -5 8 -12 7 -23 -2 -12 -10 -14 -10 -8 0 5 9 -5 12 -38
12 -25 0 -49 0 -52 -1 -4 0 -11 5 -15 13 -5 7 -9 8 -9 2 0 -6 -7 -11 -15 -11
-8 0 -15 3 -15 7 0 9 -42 7 -58 -3 -7 -5 -9 -13 -6 -19 4 -7 2 -8 -5 -4 -9 6
-9 11 0 22 9 11 8 14 -4 14 -8 0 -18 -6 -21 -12 -4 -7 -4 -2 -2 12 5 24 4 24
-9 6 -15 -20 -15 -20 -15 0 0 15 -2 16 -9 4 -6 -8 -7 -18 -4 -23 9 -15 -41 15
-55 32 -10 14 -11 14 -6 -4 5 -16 4 -17 -5 -5 -10 13 -12 13 -20 1 -8 -12 -12
-12 -25 -2 -27 23 -18 29 38 27 30 -1 53 1 50 6 -6 9 -125 11 -148 2 -9 -3
-13 -11 -9 -17 3 -6 1 -7 -5 -3 -6 4 -9 13 -5 21 3 11 -2 15 -17 15 -20 0 -21
-2 -9 -17 13 -17 12 -17 -6 -2 -24 19 -71 20 -67 1 1 -8 -2 -11 -8 -7 -6 3 -8
11 -5 16 4 5 -3 9 -15 9 -14 0 -19 -4 -14 -12 6 -10 4 -10 -7 -2 -20 16 -118
17 -137 2 -13 -11 -14 -11 -8 0 6 11 -18 13 -128 11 -75 -2 -138 -4 -140 -6z
m607 -20 c-7 -2 -13 -9 -13 -14 0 -6 4 -8 9 -4 5 3 12 1 15 -4 7 -10 -19 -9
-30 1 -9 9 5 28 19 27 9 0 9 -2 0 -6z m352 -71 c-3 -3 -11 0 -18 7 -9 10 -8
11 6 5 10 -3 15 -9 12 -12z m215 -2 c-8 -5 -10 -10 -4 -10 7 0 14 -7 18 -15 7
-19 1 -19 -18 1 -17 16 -13 34 7 34 7 0 6 -4 -3 -10z m-415 -10 c3 -5 1 -10
-4 -10 -6 0 -11 5 -11 10 0 6 2 10 4 10 3 0 8 -4 11 -10z m382 -12 c-3 -8 -6
-5 -6 6 -1 11 2 17 5 13 3 -3 4 -12 1 -19z m-20 -5 c-4 -3 -1 -13 6 -22 11
-14 10 -14 -5 -2 -16 12 -16 31 -1 31 4 0 3 -3 0 -7z m-200 -32 c0 -11 -5 -18
-9 -15 -4 3 -5 11 -1 19 7 21 12 19 10 -4z m-1814 -15 c9 1 15 -2 12 -6 -3 -5
3 -13 12 -19 10 -6 13 -11 6 -11 -6 0 -18 7 -27 15 -8 9 -19 15 -23 15 -4 -1
-9 4 -11 12 -2 9 -1 9 5 2 4 -6 16 -10 26 -8z m74 -521 c0 -8 -4 -12 -9 -9 -5
3 -6 10 -3 15 9 13 12 11 12 -6z m4 -52 c13 -16 12 -17 -3 -4 -10 7 -18 15
-18 17 0 8 8 3 21 -13z m14 -332 c3 -5 2 -12 -3 -15 -5 -3 -9 1 -9 9 0 17 3
19 12 6z m9 -89 c3 -5 -1 -9 -9 -9 -8 0 -12 4 -9 9 3 4 7 8 9 8 2 0 6 -4 9 -8z
m-4 -198 c0 -8 -19 -13 -24 -6 -3 5 1 9 9 9 8 0 15 -2 15 -3z m15 -284 c3 -5
1 -10 -4 -10 -6 0 -11 5 -11 10 0 6 2 10 4 10 3 0 8 -4 11 -10z m22 -315 c0
-8 -4 -12 -9 -9 -5 3 -6 10 -3 15 9 13 12 11 12 -6z m3 -119 c0 -3 -4 -8 -10
-11 -5 -3 -10 -1 -10 4 0 6 5 11 10 11 6 0 10 -2 10 -4z m-7 -181 c-7 -21 -12
-19 -10 4 0 11 5 18 9 15 4 -3 5 -11 1 -19z m32 -245 c3 -6 -1 -7 -9 -4 -18 7
-21 14 -7 14 6 0 13 -4 16 -10z m-5 -34 c0 -2 -7 -7 -16 -10 -8 -3 -12 -2 -9
4 6 10 25 14 25 6z"/>
<path d="M2610 3169 c0 -5 9 -9 20 -9 11 0 20 2 20 4 0 2 -9 6 -20 9 -11 3
-20 1 -20 -4z"/>
<path d="M2506 3148 c3 -5 10 -6 15 -3 13 9 11 12 -6 12 -8 0 -12 -4 -9 -9z"/>
<path d="M2586 3138 c3 -4 9 -8 15 -8 5 0 9 4 9 8 0 5 -7 9 -15 9 -8 0 -12 -4
-9 -9z"/>
</g>
</svg>
